Coordinates
version=1
nRows=8
nColumns=27
inDegrees=yes

Units are S.I. units (second, meters, Newtons, ...)
If the header above contains a line with 'inDegrees', this indicates whether rotational values are in degrees (yes) or radians (no).

endheader
time	pelvis_rotation	pelvis_tilt	pelvis_list	pelvis_tx	pelvis_ty	pelvis_tz	hip_flexion_r	hip_adduction_r	hip_rotation_r	knee_angle_r	knee_rotation_r	knee_adduction_r	knee_angle_r_beta	ankle_angle_r	subtalar_angle_r	mtp_angle_r	hip_flexion_l	hip_adduction_l	hip_rotation_l	knee_angle_l	knee_rotation_l	knee_adduction_l	knee_angle_l_beta	ankle_angle_l	subtalar_angle_l	mtp_angle_l
     10.32500000	      5.17086403	    -44.25131742	      5.39247416	     -0.14479117	      0.79259869	     -1.20141438	     94.10888016	    -13.94245215	    -13.95292432	     61.83366902	     -6.50577394	      8.25882025	      1.07920111	      7.27514877	     -8.04648577	      0.00000000	     92.33146362	     -6.86798532	    -16.80881676	     57.48604693	     -7.89983563	     -9.02869168	      1.00332079	      5.49053394	      1.32022530	      0.00000000
     10.33000000	      5.21157829	    -43.63100651	      5.32812658	     -0.14333657	      0.79450904	     -1.20173199	     93.07527665	    -14.11877857	    -15.10943930	     61.33864784	     -7.19045133	      8.95245525	      1.07056136	      7.26282762	     -7.88069771	      0.00000000	     91.34868954	     -6.66864741	    -17.50279232	     56.94143435	     -8.50856460	     -9.45477722	      0.99381551	      5.42613091	      1.48210162	      0.00000000
     10.33500000	      5.24737716	    -43.58637779	      5.42058131	     -0.14333940	      0.79503218	     -1.20176266	     92.96431266	    -14.20407820	    -15.04804970	     61.23055802	     -7.06423458	      8.98145702	      1.06867484	      7.23113777	     -7.94109826	      0.00000000	     91.19088107	     -6.63304259	    -17.58274923	     56.77845802	     -8.46206835	     -9.46481578	      0.99097104	      5.37467826	      1.47895782	      0.00000000
     10.34000000	      4.95311148	    -43.48530744	      5.00818167	     -0.14325487	      0.79571024	     -1.20139033	     92.59746077	    -13.95218216	    -15.38159239	     60.94368220	     -7.07741132	      8.99648553	      1.06366791	      7.17600237	     -7.96542507	      0.00000000	     91.02347561	     -6.92700554	    -17.38577298	     56.69770023	     -8.36920735	     -9.46826323	      0.98956155	      5.32297044	      1.56402635	      0.00000000
     10.34500000	      5.08048360	    -43.38323693	      5.27070576	     -0.14323304	      0.79621396	     -1.20146118	     92.49868012	    -14.10341546	    -15.25445844	     60.87684002	     -7.03565764	      9.00989352	      1.06250130	      7.15554253	     -7.91559238	      0.00000000	     90.76980147	     -6.80614817	    -17.59670738	     56.48060216	     -8.34942448	     -9.46795350	      0.98577247	      5.21493053	      1.60856174	      0.00000000
     10.35000000	      4.88216329	    -43.36364062	      5.00787257	     -0.14315507	      0.79686134	     -1.20124697	     92.27852774	    -13.95944897	    -15.47973878	     60.65080861	     -7.00520185	      9.02899374	      1.05855630	      7.06563334	     -7.87155351	      0.00000000	     90.65998685	     -6.99702783	    -17.45861147	     56.37843875	     -8.25680342	     -9.46979770	      0.98398938	      5.26016729	      1.61811153	      0.00000000
     10.35500000	      5.12978709	    -43.30058272	      5.45181190	     -0.14316641	      0.79733034	     -1.20150089	     92.28910053	    -14.25226192	    -15.20353187	     60.65206040	     -6.88989667	      9.03674804	      1.05857815	      7.08343762	     -7.76000064	      0.00000000	     90.41727097	     -6.74649867	    -17.76249695	     56.11947195	     -8.24710048	     -9.46980624	      0.97946956	      5.18796101	      1.58105731	      0.00000000
     10.36000000	      4.90253298	    -43.24422592	      5.04039570	     -0.14310434	      0.79800009	     -1.20111068	     91.96812874	    -14.04447182	    -15.60388095	     60.37392629	     -6.92386803	      9.05236031	      1.05372380	      6.99466502	     -7.76011282	      0.00000000	     90.30399196	     -6.98521903	    -17.49744452	     56.02712090	     -8.15064783	     -9.46794581	      0.97785773	      5.16227965	      1.66305839	      0.00000000
